<?xml version="1.0" encoding="UTF-8" standalone="no"?>
<!-- Generator: Adobe Illustrator 16.0.0, SVG Export Plug-In . SVG Version: 6.00 Build 0)  -->

<svg
   xmlns:dc="http://purl.org/dc/elements/1.1/"
   xmlns:cc="http://creativecommons.org/ns#"
   xmlns:rdf="http://www.w3.org/1999/02/22-rdf-syntax-ns#"
   xmlns:svg="http://www.w3.org/2000/svg"
   xmlns="http://www.w3.org/2000/svg"
   xmlns:sodipodi="http://sodipodi.sourceforge.net/DTD/sodipodi-0.dtd"
   xmlns:inkscape="http://www.inkscape.org/namespaces/inkscape"
   version="1.1"
   id="Capa_1"
   x="0px"
   y="0px"
   width="24"
   height="24"
   viewBox="0 0 24 24"
   xml:space="preserve"
   inkscape:version="0.91 r13725"
   sodipodi:docname="distancia.svg"><metadata
     id="metadata47"><rdf:RDF><cc:Work
         rdf:about=""><dc:format>image/svg+xml</dc:format><dc:type
           rdf:resource="http://purl.org/dc/dcmitype/StillImage" /><dc:title></dc:title></cc:Work></rdf:RDF></metadata><defs
     id="defs45" /><sodipodi:namedview
     pagecolor="#ffffff"
     bordercolor="#666666"
     borderopacity="1"
     objecttolerance="10"
     gridtolerance="10"
     guidetolerance="10"
     inkscape:pageopacity="0"
     inkscape:pageshadow="2"
     inkscape:window-width="1366"
     inkscape:window-height="705"
     id="namedview43"
     showgrid="false"
     inkscape:zoom="11.733703"
     inkscape:cx="8.4705666"
     inkscape:cy="11.933026"
     inkscape:window-x="-8"
     inkscape:window-y="-8"
     inkscape:window-maximized="1"
     inkscape:current-layer="g3" /><g
     id="g13"
     transform="translate(0,-456.543)" /><g
     id="g15"
     transform="translate(0,-456.543)" /><g
     id="g17"
     transform="translate(0,-456.543)" /><g
     id="g19"
     transform="translate(0,-456.543)" /><g
     id="g21"
     transform="translate(0,-456.543)" /><g
     id="g23"
     transform="translate(0,-456.543)" /><g
     id="g25"
     transform="translate(0,-456.543)" /><g
     id="g27"
     transform="translate(0,-456.543)" /><g
     id="g29"
     transform="translate(0,-456.543)" /><g
     id="g31"
     transform="translate(0,-456.543)" /><g
     id="g33"
     transform="translate(0,-456.543)" /><g
     id="g35"
     transform="translate(0,-456.543)" /><g
     id="g37"
     transform="translate(0,-456.543)" /><g
     id="g39"
     transform="translate(0,-456.543)" /><g
     id="g41"
     transform="translate(0,-456.543)" /><g
     id="g3"
     transform="matrix(0.04567541,0,0,0.04567541,0.95696507,1.008834)"
     style="fill:#ff3c3c;fill-opacity:1"><path
       style="fill:#ff3c3c;fill-opacity:1"
       inkscape:connector-curvature="0"
       id="path7"
       d="m 225.278,278.426 c 0,-48.641 -39.572,-88.213 -88.214,-88.213 -48.641,0 -88.212,39.572 -88.212,88.213 0,14.254 3.401,27.727 9.431,39.654 l 78.781,162.463 78.795,-162.488 c 6.021,-11.922 9.419,-25.386 9.419,-39.629 z m -88.214,48.817 c -26.917,0 -48.817,-21.9 -48.817,-48.817 0,-26.917 21.9,-48.817 48.817,-48.817 26.918,0 48.817,21.9 48.817,48.817 0,26.917 -21.899,48.817 -48.817,48.817 z" /><path
       style="fill:#ff3c3c;fill-opacity:1"
       inkscape:connector-curvature="0"
       id="path9"
       d="m 387.021,0 c -24.63,0 -44.669,20.038 -44.669,44.668 0,7.218 1.723,14.04 4.776,20.081 l 39.893,82.267 39.899,-82.28 c 3.049,-6.037 4.77,-12.855 4.77,-20.067 C 431.69,20.038 411.65,0 387.021,0 Z m 0,69.388 c -13.631,0 -24.72,-11.089 -24.72,-24.72 0,-13.63 11.089,-24.72 24.72,-24.72 13.629,0 24.719,11.09 24.719,24.72 0,13.631 -11.09,24.72 -24.719,24.72 z" /><path
       style="fill:#808080;fill-opacity:1"
       inkscape:connector-curvature="0"
       id="path11"
       d="m 348.116,289.787 c -1.812,-8.523 -4.166,-16.875 -7.131,-25.075 -3.974,-10.987 -8.74,-21.724 -12.391,-32.836 -6.823,-20.771 4.948,-38.105 7.16,-41.256 3.876,-5.517 8.408,-10.58 13.19,-15.322 9.207,-9.128 19.361,-17.288 29.984,-24.803 -1.316,-2.039 -2.591,-4.1 -3.805,-6.199 -15.279,5.99 -93.854,33.452 -91.938,94.121 0.384,12.162 5.083,23.737 7.979,35.526 1.395,5.681 2.605,11.412 3.345,17.218 0.319,2.614 0.515,5.243 0.729,7.87 0.006,-0.02 0.004,-0.034 -0.008,-0.045 0.007,0.076 0.202,8.326 -0.164,11.9 -1.147,11.189 -2.799,22.494 -7.516,32.758 -4.387,9.543 -11.006,17.842 -19.193,24.402 -18.716,14.994 -43.514,20.988 -66.913,23.398 -1.114,0.117 -2.228,0.217 -3.342,0.314 l -41.779,86.152 c 20.614,-1.281 41.175,-4.102 61.235,-9.039 23.607,-5.811 46.613,-14.588 67.227,-27.598 20.596,-12.996 38.308,-30.578 50.099,-51.984 12.335,-22.391 17.277,-48.038 16.225,-73.452 -0.357,-8.681 -1.181,-17.53 -2.993,-26.05 z" /></g></svg>