<?xml version="1.0" encoding="UTF-8" standalone="no"?>
<svg
   xmlns:dc="http://purl.org/dc/elements/1.1/"
   xmlns:cc="http://creativecommons.org/ns#"
   xmlns:rdf="http://www.w3.org/1999/02/22-rdf-syntax-ns#"
   xmlns:svg="http://www.w3.org/2000/svg"
   xmlns="http://www.w3.org/2000/svg"
   xmlns:sodipodi="http://sodipodi.sourceforge.net/DTD/sodipodi-0.dtd"
   xmlns:inkscape="http://www.inkscape.org/namespaces/inkscape"
   viewBox="0 0 810.27002 143.345"
   height="143.345"
   width="810.27002"
   xml:space="preserve"
   id="svg2"
   version="1.1"
   inkscape:version="0.91 r13725"
   sodipodi:docname="logo.svg"><sodipodi:namedview
     pagecolor="#ffffff"
     bordercolor="#666666"
     borderopacity="1"
     objecttolerance="10"
     gridtolerance="10"
     guidetolerance="10"
     inkscape:pageopacity="0"
     inkscape:pageshadow="2"
     inkscape:window-width="1366"
     inkscape:window-height="705"
     id="namedview48"
     showgrid="false"
     inkscape:zoom="0.28921569"
     inkscape:cx="528"
     inkscape:cy="408"
     inkscape:window-x="-8"
     inkscape:window-y="-8"
     inkscape:window-maximized="1"
     inkscape:current-layer="svg2" /><metadata
     id="metadata8"><rdf:RDF><cc:Work
         rdf:about=""><dc:format>image/svg+xml</dc:format><dc:type
           rdf:resource="http://purl.org/dc/dcmitype/StillImage" /><dc:title></dc:title></cc:Work></rdf:RDF></metadata><defs
     id="defs6"><clipPath
       id="clipPath18"
       clipPathUnits="userSpaceOnUse"><path
         id="path16"
         d="M 0,612 792,612 792,0 0,0 Z"
         inkscape:connector-curvature="0" /></clipPath></defs><g
     transform="matrix(1.3333333,0,0,-1.3333333,-122.36898,479.7723)"
     id="g10"><g
       id="g12"><g
         clip-path="url(#clipPath18)"
         id="g14"><g
           transform="translate(219.9199,293.6162)"
           id="g20"><path
             id="path22"
             style="fill:#7a7c7e;fill-opacity:1;fill-rule:nonzero;stroke:none"
             d="m 0,0 c 4.188,0 6.73,1.646 6.73,4.786 l 0,0.098 c 0,2.938 -2.344,4.68 -7.175,4.68 l -9.718,0 0,-9.564 z m -1.791,14.748 c 3.934,0 6.577,1.547 6.577,4.741 l 0,0.097 c 0,2.737 -2.191,4.435 -6.128,4.435 l -8.821,0 0,-9.273 z m -14.407,14.702 15.652,0 c 3.983,0 7.123,-1.092 9.112,-3.089 1.556,-1.555 2.345,-3.432 2.345,-5.788 l 0,-0.09 c 0,-4.188 -2.39,-6.431 -4.984,-7.777 4.091,-1.392 6.928,-3.739 6.928,-8.466 l 0,-0.097 c 0,-6.237 -5.129,-9.573 -12.904,-9.573 l -16.149,0"
             inkscape:connector-curvature="0" /></g><g
           transform="translate(237.73,297.7588)"
           id="g24"><path
             id="path26"
             style="fill:#7a7c7e;fill-opacity:1;fill-rule:nonzero;stroke:none"
             d="m 0,0 0,16.737 6.028,0 0,-14.949 c 0,-4.084 2.045,-6.425 5.635,-6.425 3.484,0 5.93,2.439 5.93,6.53 l 0,14.844 6.032,0 0,-26.301 -6.032,0 0,4.083 C 15.892,-7.979 13.458,-10.118 9.367,-10.118 3.44,-10.118 0,-6.14 0,0"
             inkscape:connector-curvature="0" /></g><g
           transform="translate(285.9844,303.1807)"
           id="g28"><path
             id="path30"
             style="fill:#7a7c7e;fill-opacity:1;fill-rule:nonzero;stroke:none"
             d="m 0,0 c -0.4,3.889 -2.703,6.918 -6.686,6.918 -3.69,0 -6.27,-2.827 -6.816,-6.918 z m -19.496,-1.944 0,0.105 c 0,7.523 5.328,13.7 12.863,13.7 8.364,0 12.605,-6.581 12.605,-14.149 l -0.097,-1.697 -19.34,0 c 0.654,-4.286 3.694,-6.679 7.576,-6.679 2.939,0 5.029,1.1 7.131,3.141 l 3.544,-3.141 c -2.505,-2.983 -5.941,-4.928 -10.776,-4.928 -7.628,0 -13.506,5.527 -13.506,13.648"
             inkscape:connector-curvature="0" /></g><g
           transform="translate(297.0566,314.4961)"
           id="g32"><path
             id="path34"
             style="fill:#7a7c7e;fill-opacity:1;fill-rule:nonzero;stroke:none"
             d="m 0,0 6.027,0 0,-4.091 c 1.702,2.49 4.143,4.637 8.227,4.637 5.926,0 9.37,-3.986 9.37,-10.118 l 0,-16.738 -6.035,0 0,14.95 c 0,4.083 -2.042,6.424 -5.628,6.424 -3.484,0 -5.934,-2.445 -5.934,-6.529 l 0,-14.845 -6.027,0"
             inkscape:connector-curvature="0" /></g><g
           transform="translate(347.5469,301.1846)"
           id="g36"><path
             id="path38"
             style="fill:#7a7c7e;fill-opacity:1;fill-rule:nonzero;stroke:none"
             d="M 0,0 0,0.104 C 0,4.733 -3.339,8.57 -8.073,8.57 -12.911,8.57 -16,4.786 -16,0.201 l 0,-0.097 c 0,-4.591 3.339,-8.473 8.028,-8.473 C -3.088,-8.369 0,-4.532 0,0 m -22.024,0 0,0.104 c 0,7.524 5.979,13.761 14.052,13.761 8.07,0 13.996,-6.133 13.996,-13.664 l 0,-0.097 c 0,-7.478 -5.971,-13.7 -14.097,-13.7 -8.024,0 -13.951,6.124 -13.951,13.596"
             inkscape:connector-curvature="0" /></g><g
           transform="translate(356.5811,291.6123)"
           id="g40"><path
             id="path42"
             style="fill:#7a7c7e;fill-opacity:1;fill-rule:nonzero;stroke:none"
             d="m 0,0 2.688,4.09 c 2.85,-2.139 5.935,-3.237 8.623,-3.237 2.595,0 4.091,1.098 4.091,2.841 l 0,0.097 c 0,2.049 -2.79,2.745 -5.882,3.694 -3.889,1.092 -8.226,2.685 -8.226,7.726 l 0,0.089 c 0,4.996 4.143,8.033 9.374,8.033 3.287,0 6.876,-1.152 9.666,-3 l -2.39,-4.277 c -2.542,1.548 -5.238,2.49 -7.422,2.49 -2.348,0 -3.69,-1.099 -3.69,-2.647 l 0,-0.09 c 0,-1.899 2.834,-2.692 5.926,-3.695 3.837,-1.188 8.17,-2.938 8.17,-7.673 l 0,-0.096 c 0,-5.527 -4.284,-8.272 -9.763,-8.272 C 7.43,-3.927 3.294,-2.588 0,0"
             inkscape:connector-curvature="0" /></g><g
           transform="translate(418.4395,302.0371)"
           id="g44"><path
             id="path46"
             style="fill:#7a7c7e;fill-opacity:1;fill-rule:nonzero;stroke:none"
             d="M 0,0 -6.028,13.955 -12.004,0 Z m -8.766,21.276 5.684,0 15.346,-35.127 -6.476,0 -3.545,8.421 -16.49,0 -3.593,-8.421 -6.271,0"
             inkscape:connector-curvature="0" /></g><path
           id="path48"
           style="fill:#7a7c7e;fill-opacity:1;fill-rule:nonzero;stroke:none"
           d="m 435.355,314.496 6.027,0 0,-26.31 -6.027,0 z m -0.247,9.767 6.477,0 0,-5.729 -6.477,0 z"
           inkscape:connector-curvature="0" /><g
           transform="translate(448.2627,314.4961)"
           id="g50"><path
             id="path52"
             style="fill:#7a7c7e;fill-opacity:1;fill-rule:nonzero;stroke:none"
             d="m 0,0 6.028,0 0,-5.931 c 1.645,3.934 4.681,6.619 9.318,6.432 l 0,-6.379 -0.344,0 c -5.28,0 -8.974,-3.44 -8.974,-10.425 l 0,-10.007 -6.028,0"
             inkscape:connector-curvature="0" /></g><g
           transform="translate(484.9971,303.1807)"
           id="g54"><path
             id="path56"
             style="fill:#7a7c7e;fill-opacity:1;fill-rule:nonzero;stroke:none"
             d="m 0,0 c -0.396,3.889 -2.692,6.918 -6.671,6.918 -3.694,0 -6.281,-2.827 -6.828,-6.918 z m -19.481,-1.944 0,0.105 c 0,7.523 5.332,13.7 12.855,13.7 8.376,0 12.608,-6.581 12.608,-14.149 l -0.104,-1.697 -19.324,0 c 0.635,-4.286 3.679,-6.679 7.568,-6.679 2.939,0 5.025,1.1 7.127,3.141 l 3.537,-3.141 c -2.482,-2.983 -5.937,-4.928 -10.769,-4.928 -7.613,0 -13.498,5.527 -13.498,13.648"
             inkscape:connector-curvature="0" /></g><g
           transform="translate(493.9336,291.6123)"
           id="g58"><path
             id="path60"
             style="fill:#7a7c7e;fill-opacity:1;fill-rule:nonzero;stroke:none"
             d="m 0,0 2.685,4.09 c 2.841,-2.139 5.938,-3.237 8.629,-3.237 2.588,0 4.084,1.098 4.084,2.841 l 0,0.097 c 0,2.049 -2.796,2.745 -5.877,3.694 -3.89,1.092 -8.227,2.685 -8.227,7.726 l 0,0.089 c 0,4.996 4.144,8.033 9.378,8.033 3.283,0 6.873,-1.152 9.662,-3 l -2.393,-4.277 c -2.543,1.548 -5.235,2.49 -7.426,2.49 -2.341,0 -3.687,-1.099 -3.687,-2.647 l 0,-0.09 c 0,-1.899 2.842,-2.692 5.93,-3.695 3.837,-1.188 8.175,-2.938 8.175,-7.673 l 0,-0.096 c 0,-5.527 -4.293,-8.272 -9.767,-8.272 C 7.426,-3.927 3.283,-2.588 0,0"
             inkscape:connector-curvature="0" /></g><g
           transform="translate(533.1211,305.5293)"
           id="g62"><path
             id="path64"
             style="fill:#7a7c7e;fill-opacity:1;fill-rule:nonzero;stroke:none"
             d="m 0,0 0,0.09 c 0,9.924 7.418,18.045 17.985,18.045 6.432,0 10.321,-2.236 13.656,-5.429 L 27.707,8.174 c -2.797,2.595 -5.788,4.33 -9.774,4.33 -6.678,0 -11.509,-5.482 -11.509,-12.302 l 0,-0.112 c 0,-6.82 4.831,-12.392 11.509,-12.392 4.285,0 7.03,1.735 10.013,4.531 l 3.95,-3.993 C 28.261,-15.556 24.268,-17.94 17.73,-17.94 7.575,-17.94 0,-10.021 0,0"
             inkscape:connector-curvature="0" /></g><path
           id="path66"
           style="fill:#7a7c7e;fill-opacity:1;fill-rule:nonzero;stroke:none"
           d="m 570.109,314.496 6.027,0 0,-26.31 -6.027,0 z m -0.247,9.767 6.477,0 0,-5.729 -6.477,0 z"
           inkscape:connector-curvature="0" /><g
           transform="translate(582.7246,297.7588)"
           id="g68"><path
             id="path70"
             style="fill:#7a7c7e;fill-opacity:1;fill-rule:nonzero;stroke:none"
             d="m 0,0 0,16.737 6.028,0 0,-14.949 c 0,-4.084 2.049,-6.425 5.631,-6.425 3.493,0 5.931,2.439 5.931,6.53 l 0,14.844 6.027,0 0,-26.301 -6.027,0 0,4.083 C 15.899,-7.979 13.462,-10.118 9.371,-10.118 3.44,-10.118 0,-6.14 0,0"
             inkscape:connector-curvature="0" /></g><g
           transform="translate(632.8604,301.2891)"
           id="g72"><path
             id="path74"
             style="fill:#7a7c7e;fill-opacity:1;fill-rule:nonzero;stroke:none"
             d="m 0,0 0,0.097 c 0,5.086 -3.589,8.421 -7.628,8.421 -4.128,0 -7.568,-3.179 -7.568,-8.421 l 0,-0.097 c 0,-5.085 3.493,-8.429 7.568,-8.429 C -3.589,-8.429 0,-5.033 0,0 m -21.269,0 0,0.097 c 0,8.713 5.923,13.656 12.206,13.656 4.337,0 7.074,-2.191 8.966,-4.637 l 0,14.157 6.028,0 0,-36.376 -6.028,0 0,4.375 c -1.937,-2.737 -4.674,-4.927 -8.966,-4.927 -6.178,0 -12.206,4.927 -12.206,13.655"
             inkscape:connector-curvature="0" /></g><g
           transform="translate(661.5928,299.1953)"
           id="g76"><path
             id="path78"
             style="fill:#7a7c7e;fill-opacity:1;fill-rule:nonzero;stroke:none"
             d="m 0,0 c -1.556,0.605 -3.694,1.054 -6.042,1.054 -3.777,0 -6.021,-1.548 -6.021,-4.09 l 0,-0.106 c 0,-2.482 2.244,-3.88 5.078,-3.88 3.986,0 6.985,2.243 6.985,5.534 z m -0.157,-11.001 0,3.23 c -1.787,-2.146 -4.531,-3.784 -8.518,-3.784 -4.996,0 -9.371,2.835 -9.371,8.115 l 0,0.104 c 0,5.833 4.532,8.623 10.672,8.623 3.186,0 5.221,-0.449 7.27,-1.099 l 0,0.5 c 0,3.628 -2.296,5.632 -6.485,5.632 -2.938,0 -5.13,-0.643 -7.515,-1.653 l -1.653,4.839 c 2.895,1.301 5.736,2.191 10.014,2.191 7.785,0 11.568,-4.083 11.568,-11.113 l 0,-15.585"
             inkscape:connector-curvature="0" /></g><g
           transform="translate(693.541,301.2891)"
           id="g80"><path
             id="path82"
             style="fill:#7a7c7e;fill-opacity:1;fill-rule:nonzero;stroke:none"
             d="m 0,0 0,0.097 c 0,5.086 -3.59,8.421 -7.621,8.421 -4.135,0 -7.575,-3.179 -7.575,-8.421 l 0,-0.097 c 0,-5.085 3.484,-8.429 7.575,-8.429 C -3.59,-8.429 0,-5.033 0,0 m -21.276,0 0,0.097 c 0,8.713 5.93,13.656 12.204,13.656 4.345,0 7.083,-2.191 8.982,-4.637 l 0,14.157 6.028,0 0,-36.376 -6.028,0 0,4.375 c -1.959,-2.737 -4.697,-4.927 -8.982,-4.927 -6.177,0 -12.204,4.927 -12.204,13.655"
             inkscape:connector-curvature="0" /></g><g
           transform="translate(136.0195,342.458)"
           id="g84"><path
             id="path86"
             style="fill:#7a7c7e;fill-opacity:1;fill-rule:nonzero;stroke:none"
             d="M 0,0 -0.505,-0.516 0,-1.025 0.505,-0.516 Z"
             inkscape:connector-curvature="0" /></g><g
           transform="translate(157.8901,331.876)"
           id="g88"><path
             id="path90"
             style="fill:#7a7c7e;fill-opacity:1;fill-rule:nonzero;stroke:none"
             d="m 0,0 c -1.365,-0.771 -2.587,-1.145 -3.747,-1.145 l -0.112,0 c -0.752,0.016 -1.518,0.113 -2.259,0.217 l -1.94,0.195 c -1.601,0.082 -2.846,-0.172 -3.852,-0.77 -0.695,-0.419 -1.17,-1.01 -1.645,-1.586 l -1.111,-1.196 -0.452,-0.217 -0.007,0 -0.183,0.389 0,0.172 -0.198,1.787 -0.049,0.329 c -0.135,1.01 -0.288,2.079 -0.535,3.134 l -0.183,0.635 c -0.292,0.928 -0.658,2.072 0.06,2.67 l 1.678,0.471 1.171,0.053 0.232,0 2.049,-0.135 C -9.812,4.838 -8.469,4.502 -6.854,3.971 -5.99,3.679 -5.115,3.35 -4.266,3.036 -2.307,2.311 -0.284,1.555 1.821,1.189 L 0,0 m -17.148,-5.295 c -0.161,-1.182 -0.628,-2.191 -1.346,-2.842 -0.636,-0.583 -1.339,-0.703 -2.266,-0.703 l -0.475,0.008 -0.505,0.007 -1.48,-0.583 c -1.118,-1.129 -1.093,-3.612 -1.077,-5.258 l 0,-0.538 -0.109,0.105 c -1.417,1.308 -2.741,2.557 -4.734,2.857 l -0.964,0.082 -1.885,-0.239 -1.559,-0.599 -0.591,-0.261 -0.759,-0.202 -0.123,0.037 0.007,0.112 1.503,1.541 0.153,0.104 c 1.478,0.995 2.864,1.997 4.24,3.066 2.506,1.953 5.269,4.383 6.641,7.688 0.774,1.863 1.111,3.994 0.965,6.178 l 0,0.127 c -0.067,0.89 -0.123,1.824 -0.482,2.654 l -1.395,1.332 -0.307,0.179 c 0.262,0.494 1.006,1.788 1.848,1.788 l 0.934,-0.599 c 1.002,-1.361 1.455,-2.998 1.851,-4.457 l 0.232,-0.792 c 0.789,-2.805 2.113,-7.479 1.683,-10.792 m -13.622,1.974 -1.309,1.945 c -1.181,1.436 -2.733,2.064 -5.063,2.064 -0.964,0 -1.989,-0.112 -2.987,-0.217 -0.973,-0.097 -1.99,-0.209 -2.939,-0.209 l -1.38,0.089 c 1.671,0.554 3.286,1.332 4.842,2.072 1.675,0.815 3.406,1.645 5.213,2.206 1.118,0.336 2.284,0.516 3.47,0.516 2.161,0 4.165,-0.568 5.788,-1.638 1.357,-0.904 1.754,-1.847 1.294,-3.178 -0.483,-1.413 -1.331,-2.805 -2.509,-4.136 l -0.262,-0.299 c -0.513,-0.613 -1.361,-1.638 -2.09,-1.638 l -0.591,0.292 c -0.58,0.636 -1.04,1.398 -1.477,2.131 M 3.953,2.669 3.874,2.677 c -2.663,0.105 -5.206,1.062 -7.658,1.997 -1.002,0.374 -2.038,0.77 -3.055,1.092 -2.015,0.643 -3.814,0.987 -5.496,1.069 l -1.28,0.038 c -1.136,0 -2.725,-0.113 -3.724,-1.07 -0.291,1.249 -0.62,2.655 -1.148,3.986 -0.505,1.264 -1.249,2.774 -2.595,3.178 l -0.666,0.097 c -1.341,0 -2.359,-1.196 -2.856,-1.906 l -0.225,-0.329 c -0.579,-0.846 -0.871,-1.264 -0.789,-1.661 0.094,-0.403 0.576,-0.695 1.672,-1.331 l 0.613,-1.451 0,-0.067 c 0.105,-0.755 0.154,-1.496 0.146,-2.198 -1.548,1.592 -3.922,2.206 -6.058,2.617 l -1.779,0.164 c -2.457,0 -4.861,-0.92 -6.454,-1.608 -0.897,-0.396 -1.799,-0.822 -2.674,-1.249 -1.682,-0.799 -3.414,-1.637 -5.22,-2.191 -0.553,-0.164 -1.136,-0.299 -1.854,-0.426 l -0.03,0 -0.049,-0.007 -0.052,-0.008 -0.827,-0.621 0.535,-1.144 c 1.32,-0.755 2.928,-1.114 4.895,-1.114 l 1.271,0.037 1.821,0.202 c 0.912,0.113 1.84,0.24 2.726,0.24 l 1.649,-0.18 c 1.469,-0.336 2.341,-1.794 3.107,-3.073 l 0.561,-0.898 0.008,-0.03 0.912,-2.094 -1.586,-1.592 -0.467,-0.292 -0.714,-0.464 c -1.462,-0.935 -3.478,-2.221 -3.238,-3.949 0.097,-0.837 0.811,-1.525 1.667,-1.63 l 0.24,-0.015 1.69,0.561 0.677,0.322 c 0.703,0.284 1.406,0.426 2.105,0.426 1.185,0 2.325,-0.397 3.384,-1.189 l 0.957,-0.875 1.051,-0.942 1.361,-0.456 0.898,0.665 c 0.168,0.853 0.16,1.75 0.16,2.617 l 0.075,2.087 0.699,1.526 0.636,0.127 0.849,-0.09 1.125,-0.075 c 1.548,0.209 2.842,1.481 3.455,3.396 l 1.294,1.099 c 0.781,0.179 1.271,0.815 1.746,1.436 l 0.351,0.448 c 0.973,1.16 2.159,1.683 3.837,1.683 l 1.01,-0.053 1.035,-0.119 c 0.894,-0.105 1.754,-0.195 2.625,-0.195 0.935,0 1.777,0.12 2.543,0.374 2.023,0.673 3.792,1.974 5.414,3.284 l 0.239,0.194 0.442,1.062 -0.908,0.56"
             inkscape:connector-curvature="0" /></g><g
           transform="translate(175.4268,294.1475)"
           id="g92"><path
             id="path94"
             style="fill:#7a7c7e;fill-opacity:1;fill-rule:nonzero;stroke:none"
             d="m 0,0 c -0.475,-2.386 -1.103,-4.727 -1.869,-7.03 l -7.804,18.516 3.433,1.534 0.014,0.867 -3.552,2.528 -0.086,5.684 1.227,0.298 1.324,-0.089 1.211,0.007 1.017,0.561 c -0.89,0.022 -1.608,0.591 -2.397,0.942 l -1.256,0.337 -1.339,-0.045 -0.153,1.039 -0.176,0 c -0.262,-1.555 -0.254,-3.26 -0.269,-4.831 -0.008,-1.099 -0.022,-2.213 -0.038,-3.313 l -0.007,-0.59 -3.534,-2.52 0,-0.875 3.324,-1.534 -6.715,-16.347 -3.459,10.514 3.829,1.803 0.015,1.009 -4.083,2.872 c -0.023,1.324 -0.045,2.767 -0.06,4.016 l 3.507,1.652 0,0.008 0.015,0.86 -3.6,2.558 c -0.031,2.58 -0.06,5.16 -0.09,7.733 l 0.587,0.119 0.676,0.172 1.325,-0.067 1.278,0 1.01,0.561 c -0.887,0.022 -1.616,0.591 -2.39,0.942 l -1.264,0.344 -1.331,-0.052 -0.153,1.046 -0.168,0 0,-0.007 c -0.247,-1.428 -0.262,-2.857 -0.277,-4.3 -0.007,-1.309 -0.015,-2.617 -0.037,-3.934 -0.015,-0.852 -0.023,-1.705 -0.038,-2.557 l -3.563,-2.551 0,-0.867 3.484,-1.653 0.008,0 c -0.008,-1.241 -0.03,-2.714 -0.052,-4.023 l -4.076,-2.864 0,-1.01 3.762,-1.802 -11.741,-13.02 -1.896,-0.285 -0.187,-0.926 0.92,-0.943 0.635,-0.306 0.072,-0.061 c 0,0 1.047,-3.515 5.571,-5.159 l -0.008,0 0.094,-0.128 -0.03,-0.045 -0.123,-0.029 c -4.312,0.262 -8.571,0.979 -12.833,1.644 -1.642,0.27 -3.265,0.509 -4.895,0.726 -1.103,0.135 -2.206,0.269 -3.31,0.472 l -0.183,0.112 0,0.007 -0.007,0.015 0,0.03 0.007,0.007 0.053,0.082 0.041,0.015 c 6.002,1.803 7.265,6.178 7.265,6.178 l 0.232,0.119 0.475,0.239 0.916,0.943 -0.191,0.927 -1.921,0.292 -0.008,-0.015 -0.292,0 c -0.014,0.942 -0.037,3.358 -0.09,4.936 l 0.565,0.03 0.673,0.187 1.38,0 1.35,-0.03 1.062,0.56 c -0.905,0.038 -1.638,0.621 -2.442,0.973 l -1.324,0.321 -1.357,-0.112 -0.108,0.942 -0.169,0 c -0.228,-1.338 -0.235,-6.005 -0.243,-7.807 l -3.017,-0.007 c -0.094,3.282 -0.232,7.673 -0.307,10.476 l 2.61,5.602 1.133,-0.314 1.073,-0.665 1.029,-0.644 1.308,-0.037 c -0.744,0.441 -1.103,1.256 -1.585,1.937 l -0.905,0.92 -1.223,0.65 0.243,0.913 -0.075,0.142 -0.048,0.007 -0.228,-0.194 -0.591,-0.927 -2.786,-5.983 c -0.033,0.942 -0.048,1.885 -0.064,2.827 0,1.181 -0.051,2.363 -0.257,3.537 l -0.168,0 c -0.24,-1.428 -0.247,-2.857 -0.262,-4.308 -0.015,-1.294 -0.06,-2.588 -0.102,-3.88 l -4.8,-9.94 -4.297,10.537 c -0.03,1.309 -0.067,2.611 -0.074,3.912 -0.031,1.48 -0.031,2.969 -0.277,4.427 l -0.169,0 c -0.243,-1.436 -0.243,-2.894 -0.269,-4.352 -0.015,-1.332 -0.052,-2.656 -0.082,-3.979 l -1.38,-3.246 -3.354,7.823 c -0.022,1.301 -0.037,2.587 -0.06,3.821 l 3.055,1.451 0.015,0.763 -3.141,2.243 c -0.037,2.7 -0.052,5.4 -0.097,8.1 l 0.58,0.119 0.669,0.172 1.324,-0.067 1.278,0 1.017,0.561 c -0.863,0.022 -1.592,0.561 -2.333,0.92 l -1.264,0.359 -1.387,-0.045 -0.138,1.054 -0.168,0 c -0.3,-1.72 -0.262,-3.463 -0.284,-5.197 -0.016,-1.676 -0.045,-3.358 -0.068,-5.041 l -0.015,-0.935 -3.126,-2.236 0,-0.77 3.062,-1.451 c -0.014,-1.391 -0.052,-3.664 -0.052,-3.821 l -6.233,-14.636 -0.913,3.366 0.805,0 0,0.007 0.4,0 0.526,0.113 0.393,0.299 -0.355,0.291 -0.564,0.128 -1.425,0 -0.606,2.318 c -0.022,0.942 -0.037,1.906 -0.052,2.842 l 3.436,1.615 0.015,0.867 -3.537,2.49 -0.03,2.259 3.092,1.466 0.019,0.785 -3.186,2.266 c -0.034,2.251 -0.048,3.761 -0.063,3.926 l 1.088,0.247 1.163,-0.03 1.125,-0.045 0.965,0.524 c -0.789,0.014 -1.44,0.523 -2.128,0.83 l -1.125,0.299 -1.193,-0.075 -0.154,0.935 -0.16,0 c -0.247,-1.234 -0.262,-2.476 -0.269,-3.725 -0.015,-1.084 -0.023,-1.809 -0.053,-2.886 l -3.163,-2.266 0,-0.778 3.092,-1.473 -0.03,-2.259 -3.485,-2.482 -0.007,-0.868 3.406,-1.622 c -0.007,-0.936 -0.03,-1.877 -0.052,-2.813 l -0.614,-2.347 -1.424,0 -0.527,-0.113 -0.389,-0.306 0.351,-0.285 0.565,-0.127 0.393,0 0.007,-0.007 0.804,0 -1.073,-4.069 -1.716,0 c -1.047,3.926 -1.676,7.949 -1.9,12.003 -0.228,4.053 -0.06,8.122 0.516,12.145 0.527,3.732 1.406,7.411 2.647,10.971 1.182,3.388 2.681,6.656 4.514,9.745 0.964,1.622 2.012,3.193 3.167,4.696 4.659,-1.563 10.69,-0.134 10.69,-0.134 5.441,0.979 8.825,0.83 10.784,0.523 l 1.066,-0.187 0.389,1.772 c -5.692,1.795 -12.085,0.928 -12.085,0.928 -3.874,-0.352 -6.234,0.433 -7.456,1.107 0,0 2.456,2.602 4.449,4.038 1.75,-1.264 3.956,-1.885 6.032,-2.259 1.372,-0.247 2.759,-0.344 4.12,-0.658 1.38,-0.306 2.748,-0.718 4.083,-1.181 l 1.376,-0.606 0.958,1.555 -0.887,0.569 c -1.753,1.002 -3.41,1.518 -5.261,2.079 -1.241,0.374 -2.427,0.8 -3.585,1.398 -1.586,0.815 -2.558,1.87 -2.64,1.952 0,0 2.695,1.653 5.246,2.588 1.177,-1.66 3.362,-2.595 4.853,-3.874 2.105,-1.795 3.231,-3.485 3.332,-3.665 l 1.593,0.883 c -0.841,1.847 -2.039,3.963 -3.485,5.31 -0.658,0.613 -1.638,1.667 -1.915,2.729 0,0 3.384,0.86 5.99,0.89 l 0.973,-8.563 0.912,0.06 0.908,-0.06 0.965,8.563 c 0,0 2.308,-0.112 4.181,-0.486 1.036,-0.202 1.825,-0.404 1.825,-0.404 -0.3,-1.047 -1.249,-2.124 -1.9,-2.729 -1.462,-1.369 -2.61,-3.456 -3.455,-5.325 l 1.578,-0.875 c 0.98,1.466 2.199,2.715 3.317,3.672 1.462,1.271 3.646,2.258 4.831,3.874 0.299,-0.105 1.615,-0.614 3.716,-1.683 l 1.567,-0.897 c -0.052,-0.045 -1.791,-1.473 -2.655,-1.96 -1.125,-0.643 -2.344,-1.024 -3.578,-1.398 -1.858,-0.561 -3.515,-1.077 -5.276,-2.079 l -0.886,-0.554 0.972,-1.563 1.369,0.599 c 1.342,0.463 2.703,0.875 4.098,1.181 1.35,0.314 2.733,0.411 4.098,0.658 2.061,0.367 4.289,1.025 6.027,2.259 2.203,-1.713 4.447,-4.046 4.447,-4.046 -1.231,-0.673 -3.59,-1.444 -7.449,-1.099 0,0 -6.394,0.875 -12.07,-0.905 0.176,-0.539 0.239,-0.913 0.366,-1.735 l 1.126,0.179 c 2.015,0.292 5.317,0.404 10.739,-0.575 0,0 6.001,-1.421 10.675,0.127 l 1.339,-1.848 c 2,-2.902 3.683,-6.02 5.055,-9.265 1.44,-3.418 2.528,-6.978 3.283,-10.613 C 0.703,20.46 1.118,16.549 1.163,12.646 1.208,8.413 0.827,4.157 0,0 M -5.814,-7.284 -9.374,7.657 C -9.49,8.563 -9.25,8.241 -9.075,7.904 L -2.55,-7.284 Z M -9.625,5.279 -9.468,5.234 -6.547,-7.359 c -0.636,-1.481 -1.93,-2.573 -2.864,-3.208 -0.03,2.288 -0.206,15.794 -0.214,15.846 M -22.6,4.075 c -0.037,-2.639 -0.123,-11.113 -0.123,-11.434 l -3.122,0 z m -3.982,-11.434 -6.984,0 10.402,11.741 z m 6.978,-2.288 c -0.819,0.867 -1.287,1.727 -1.47,2.085 -0.03,2.85 -0.101,7.083 -0.168,11.63 l 3.208,-9.909 z m 3.705,-2.169 c -1.324,0.298 -2.374,0.942 -3.178,1.652 l 1.38,3.283 z m 4.682,19.623 -4.229,-18.771 -1.836,5.041 0.014,0.037 5.789,13.88 0.262,-0.187 m 0.336,-2.536 c -0.094,-5.907 -0.187,-12.242 -0.254,-16.713 -1.425,-0.479 -2.681,-0.621 -3.777,-0.524 l 2.431,10.829 1.432,6.371 0.168,0.037 m 1.118,10.486 2.588,-1.818 -2.565,0 -0.023,1.818 m -3.563,-1.818 2.557,1.818 -0.022,-1.818 z m 0.613,-0.987 4.88,0 0.022,-0.104 -2.199,-1.047 -0.452,0 -2.273,1.047 0.022,0.104 m -8.63,-2.296 2.972,-2.131 -2.935,0 c -0.007,0.696 -0.022,1.444 -0.037,2.131 m -0.131,9.087 2.565,-1.787 -2.528,0 -0.037,1.787 m -3.429,-1.787 2.543,1.816 -0.023,-1.816 z m 0.505,-1.033 0.108,0.03 4.761,0 0.086,-0.022 0.014,0 -0.014,-0.008 -0.068,-0.074 -2.139,-1.003 -0.445,-0.007 -2.221,1.01 -0.082,0.074 m -1.073,-8.398 2.988,2.131 -0.031,-2.131 z m 0.658,-1.129 5.699,0 0.067,-0.105 -2.596,-1.241 -0.534,-0.008 -2.666,1.227 0.03,0.127 M -53.056,-3.463 -49.11,5.01 c -0.068,-2.43 -0.146,-5.915 -0.221,-8.473 l -3.725,0 m -3.507,-3.298 -1.2,-1.085 c -0.03,1.167 -0.079,2.693 -0.109,4.069 z m -1.361,4.936 0,1.257 c -0.056,2.235 -0.108,3.267 -0.161,5.332 l 0.168,0.082 3.452,-8.608 c -0.565,-1.13 -0.666,-1.526 -1.537,-2.445 z m -3.792,2.67 -1.981,8.6 0.142,0.007 2.759,-6.424 z m -1.821,-4.316 c -0.041,2.529 -0.086,5.497 -0.13,8.564 l 0.205,0.059 1.264,-5.452 z m 1.616,1.967 1.865,-7.665 c -0.657,-0.269 -1.469,-0.427 -2.179,-0.516 l -0.759,-0.067 -0.468,-0.022 c -0.007,1.031 -0.03,2.586 -0.052,4.494 z m 1.914,4.532 0.775,1.832 0.141,-0.014 c -0.03,-1.182 -0.059,-2.439 -0.09,-3.732 z m 0.782,-3.664 c -0.079,-2.925 -0.153,-5.841 -0.195,-8.099 l -0.074,-0.045 -1.938,8.421 1.033,2.46 z m -4.652,19.997 2.27,-1.488 -2.244,0 -0.026,1.488 m -3.201,-1.488 2.293,1.511 -0.015,-1.511 z m 0.546,-0.875 4.342,0 0.022,-0.104 -1.952,-0.928 -0.407,0 -2.027,0.928 0.022,0.104 m 1.53,-11.95 c -0.082,-6.103 -0.169,-11.786 -0.198,-14.501 -1.048,0.299 -2.091,0.628 -2.995,1.264 l 3.066,13.513 0.127,-0.276 m -3.829,-12.856 c -1.866,1.242 -2.128,3.253 -2.012,3.634 l 5.781,13.626 0.146,0 z m 59.528,-13.708 c -4.281,-1.04 -8.678,-1.592 -13.091,-1.817 -2.195,-0.12 -4.409,-0.172 -6.615,-0.067 -2.22,0.104 -4.434,0.47 -6.64,0.793 -4.431,0.635 -8.873,1.345 -13.33,1.839 -4.451,0.494 -8.922,0.763 -13.395,0.539 -2.426,-0.121 -4.864,-0.397 -7.254,-0.861 -0.818,1.145 -1.593,2.334 -2.326,3.56 3.945,0.823 7.942,1.346 11.97,1.488 4.072,0.15 8.14,-0.134 12.182,-0.658 3.907,-0.516 7.781,-1.234 11.685,-1.757 3.571,-0.479 7.161,-0.801 10.769,-0.801 l 0.023,0 c 3.727,0 7.474,0.329 11.173,0.936 2.695,0.433 5.377,0.987 8.008,1.675 -0.971,-1.706 -2.026,-3.329 -3.159,-4.869 m -10.178,-10.036 c -4.282,-0.449 -8.608,-0.247 -12.881,0.217 -4.275,0.464 -8.515,1.189 -12.766,1.802 -4.39,0.643 -8.791,1.189 -13.233,1.144 -1.5,-0.014 -3.003,-0.082 -4.495,-0.231 -1.41,1.249 -2.748,2.609 -4.027,4.053 4.445,0.658 8.966,0.643 13.446,0.322 4.495,-0.337 8.952,-0.987 13.401,-1.646 2.236,-0.329 4.48,-0.666 6.709,-0.957 1.118,-0.149 5.545,-0.486 6.64,-0.478 4.473,0 8.959,0.329 13.375,1.047 -1.914,-1.983 -3.982,-3.747 -6.169,-5.273 m -19.818,-6.394 c -6.764,0 -13.143,2.042 -18.771,5.676 4.356,0.03 8.683,-0.545 12.987,-1.181 4.318,-0.644 8.637,-1.369 12.982,-1.803 1.668,-0.18 3.347,-0.299 5.022,-0.366 -3.859,-1.511 -7.965,-2.326 -12.22,-2.326 m -33.458,34.393 c -0.015,1.264 -0.038,2.603 -0.064,3.987 l 0.168,-0.113 1.028,-3.874 z m -0.232,14.404 2.557,-1.795 -2.524,0 -0.033,1.795 m -0.105,6.693 2.311,-1.503 -2.288,0 -0.023,1.503 m -3.156,-1.503 2.337,1.548 -0.033,-1.548 z m 0.535,-0.89 4.352,0 0.015,-0.09 -1.94,-0.92 -0.419,-0.007 -2.023,0.927 0.015,0.09 m -0.849,-6.095 2.543,1.802 -0.03,-1.802 z m 2.857,-2.146 -2.273,1.047 0.022,0.105 4.868,0 0.023,-0.105 -2.18,-1.047 -0.46,0 m -0.561,-10.463 -1.133,0 1.021,3.844 0.183,0.149 c -0.023,-1.39 -0.049,-2.729 -0.071,-3.993 M 4.24,22.136 c -0.579,3.717 -1.507,7.388 -2.755,10.933 -1.201,3.403 -2.711,6.701 -4.525,9.827 -1.409,2.408 -2.995,4.734 -4.771,6.895 -2.266,2.774 -4.838,5.31 -7.673,7.501 -2.767,2.139 -5.781,3.934 -8.985,5.317 -3.193,1.369 -6.577,2.311 -10.013,2.752 -3.508,0.464 -7.086,0.427 -10.579,-0.127 -3.429,-0.531 -6.775,-1.563 -9.931,-3.014 -3.179,-1.45 -6.155,-3.328 -8.885,-5.519 -2.778,-2.243 -5.283,-4.824 -7.486,-7.636 -2.183,-2.744 -4.068,-5.72 -5.668,-8.854 -1.653,-3.246 -3.003,-6.648 -4.042,-10.155 -1.073,-3.65 -1.818,-7.411 -2.214,-11.203 -0.415,-3.941 -0.475,-7.913 -0.176,-11.869 0.288,-3.829 0.909,-7.635 1.881,-11.344 0.928,-3.552 2.184,-7.037 3.747,-10.366 1.507,-3.193 3.309,-6.237 5.399,-9.093 2.352,-3.194 8.316,-8.847 8.346,-8.847 7.045,-5.759 15.585,-9.161 24.791,-9.161 l 0.007,0 c 3.497,0 7.004,0.493 10.377,1.48 3.339,0.973 6.521,2.401 9.494,4.203 3.018,1.832 5.796,4.053 8.301,6.551 2.498,2.49 4.719,5.258 6.641,8.219 1.952,2.991 3.604,6.185 4.954,9.49 1.41,3.441 2.479,7.023 3.231,10.672 0.796,3.815 1.227,7.688 1.323,11.576 0.086,3.942 -0.168,7.89 -0.789,11.772"
             inkscape:connector-curvature="0" /></g></g></g></g></svg>