<?xml version="1.0" encoding="UTF-8" standalone="no"?>
<svg
   xmlns:dc="http://purl.org/dc/elements/1.1/"
   xmlns:cc="http://creativecommons.org/ns#"
   xmlns:rdf="http://www.w3.org/1999/02/22-rdf-syntax-ns#"
   xmlns:svg="http://www.w3.org/2000/svg"
   xmlns="http://www.w3.org/2000/svg"
   xmlns:sodipodi="http://sodipodi.sourceforge.net/DTD/sodipodi-0.dtd"
   xmlns:inkscape="http://www.inkscape.org/namespaces/inkscape"
   height="24px"
   version="1.1"
   viewBox="0 0 24 24"
   width="24px"
   id="svg2"
   inkscape:version="0.91 r13725"
   sodipodi:docname="lupaPOI.svg">
  <metadata
     id="metadata16">
    <rdf:RDF>
      <cc:Work
         rdf:about="">
        <dc:format>image/svg+xml</dc:format>
        <dc:type
           rdf:resource="http://purl.org/dc/dcmitype/StillImage" />
        <dc:title></dc:title>
      </cc:Work>
    </rdf:RDF>
  </metadata>
  <sodipodi:namedview
     pagecolor="#ffffff"
     bordercolor="#666666"
     borderopacity="1"
     objecttolerance="10"
     gridtolerance="10"
     guidetolerance="10"
     inkscape:pageopacity="0"
     inkscape:pageshadow="2"
     inkscape:window-width="1366"
     inkscape:window-height="705"
     id="namedview14"
     showgrid="false"
     inkscape:zoom="9.8333333"
     inkscape:cx="12"
     inkscape:cy="12"
     inkscape:window-x="-8"
     inkscape:window-y="-8"
     inkscape:window-maximized="1"
     inkscape:current-layer="svg2" />
  <desc
     id="desc6" />
  <defs
     id="defs8" />
  <g
     id="miu"
     stroke-width="1"
     stroke="none"
     fill-rule="evenodd"
     fill="none">
    <g
       id="Artboard-1"
       transform="translate(-504.000000, -407.000000)">
      <g
         id="slice"
         transform="translate(215.000000, 119.000000)" />
      <path
         d="M518.355321,423.477719 C516.978868,424.437293 515.305148,425 513.5,425 C508.805579,425 505,421.194421 505,416.5 C505,411.805579 508.805579,408 513.5,408 C518.194421,408 522,411.805579 522,416.5 C522,418.667567 521.188662,420.645635 519.85311,422.147082 L526.197023,428.490994 C526.25233,428.546301 526.257003,428.642045 526.200832,428.698217 L524.990032,429.909017 C524.935379,429.96367 524.841084,429.963482 524.782809,429.905207 L518.355321,423.477719 L518.355321,423.477719 Z M513.5,424 C517.642136,424 521,420.642136 521,416.5 C521,412.357864 517.642136,409 513.5,409 C509.357864,409 506,412.357864 506,416.5 C506,420.642136 509.357864,424 513.5,424 L513.5,424 Z"
         id="common-search-lookup-outline-stroke"
         fill="#000000" />
    </g>
  </g>
  <g
     transform="matrix(0.02267769,0,0,0.02267769,4.2688177,3.9637366)"
     id="g3"
     style="fill:#ff3c3c;fill-opacity:1">
    <path
       inkscape:connector-curvature="0"
       d="m 233.292,0 c -85.1,0 -154.334,69.234 -154.334,154.333 0,34.275 21.887,90.155 66.908,170.834 31.846,57.063 63.168,104.643 64.484,106.64 l 22.942,34.775 22.941,-34.774 c 1.317,-1.998 32.641,-49.577 64.483,-106.64 45.023,-80.68 66.908,-136.559 66.908,-170.834 C 387.625,69.234 318.391,0 233.292,0 Z m 0,233.291 c -44.182,0 -80,-35.817 -80,-80 0,-44.183 35.818,-80 80,-80 44.182,0 80,35.817 80,80 0,44.183 -35.819,80 -80,80 z"
       id="path5"
       style="fill:#ff3c3c;fill-opacity:1" />
  </g>
</svg>
