<?xml version="1.0" encoding="UTF-8" standalone="no"?>
<svg
   xmlns:dc="http://purl.org/dc/elements/1.1/"
   xmlns:cc="http://creativecommons.org/ns#"
   xmlns:rdf="http://www.w3.org/1999/02/22-rdf-syntax-ns#"
   xmlns:svg="http://www.w3.org/2000/svg"
   xmlns="http://www.w3.org/2000/svg"
   xmlns:sodipodi="http://sodipodi.sourceforge.net/DTD/sodipodi-0.dtd"
   xmlns:inkscape="http://www.inkscape.org/namespaces/inkscape"
   version="1.1"
   x="0px"
   y="0px"
   width="24"
   height="24"
   viewBox="0 0 24 24"
   xml:space="preserve"
   id="svg2"
   inkscape:version="0.91 r13725"
   sodipodi:docname="reloj.svg"><metadata
     id="metadata13"><rdf:RDF><cc:Work
         rdf:about=""><dc:format>image/svg+xml</dc:format><dc:type
           rdf:resource="http://purl.org/dc/dcmitype/StillImage" /><dc:title></dc:title></cc:Work></rdf:RDF></metadata><defs
     id="defs11" /><sodipodi:namedview
     pagecolor="#ffffff"
     bordercolor="#666666"
     borderopacity="1"
     objecttolerance="10"
     gridtolerance="10"
     guidetolerance="10"
     inkscape:pageopacity="0"
     inkscape:pageshadow="2"
     inkscape:window-width="1366"
     inkscape:window-height="705"
     id="namedview9"
     showgrid="false"
     inkscape:zoom="17.332153"
     inkscape:cx="11.95539"
     inkscape:cy="12.089219"
     inkscape:window-x="-8"
     inkscape:window-y="-8"
     inkscape:window-maximized="1"
     inkscape:current-layer="svg2" /><g
     id="clock"
     transform="matrix(0.06096911,0,0,0.06096911,-2.4502496,-2.4201721)"><path
       d="m 237.225,55.998 c -99.404,0 -180,80.596 -180,180.001 0,99.415 80.596,180.001 180,180.001 99.406,0 179.998,-80.586 179.998,-180.001 0,-99.405 -80.592,-180.001 -179.998,-180.001 z m 0,312.004 c -72.781,0 -132.002,-59.213 -132.002,-132.003 0,-72.781 59.221,-131.997 132.002,-131.997 72.781,0 131.998,59.216 131.998,131.997 0,72.79 -59.217,132.003 -131.998,132.003 z"
       id="path5"
       inkscape:connector-curvature="0" /><path
       d="m 309.913,220.001 -60.658,0 c -4.396,0 -10.531,-2.554 -13.625,-5.682 l -50.717,-51.227 c -3.102,-3.123 -8.189,-3.149 -11.32,-0.047 l -11.361,11.252 c -3.133,3.103 -3.154,8.185 -0.057,11.312 l 60.111,60.709 c 3.092,3.124 9.229,5.679 13.625,5.679 l 74.002,0 c 4.393,0 7.998,-3.59 7.998,-8 l 0,-15.997 c 0,-4.392 -3.606,-7.999 -7.998,-7.999 z"
       id="path7"
       inkscape:connector-curvature="0" /></g></svg>